<svg width="10" height="10" viewBox="0 0 10 10" fill="none" xmlns="http://www.w3.org/2000/svg">
<path fill-rule="evenodd" clip-rule="evenodd" d="M0.804666 0.528731C0.92881 0.403744 1.09716 0.33353 1.2727 0.33353C1.44824 0.33353 1.6166 0.403744 1.74074 0.528731L5.24473 4.05757L8.74872 0.528731C8.80979 0.465054 8.88284 0.414264 8.96361 0.379323C9.04437 0.344381 9.13124 0.32599 9.21914 0.32522C9.30704 0.324451 9.39421 0.34132 9.47557 0.374842C9.55693 0.408364 9.63085 0.457869 9.693 0.520467C9.75516 0.583065 9.80432 0.657503 9.8376 0.739438C9.87089 0.821373 9.88764 0.909164 9.88687 0.997687C9.88611 1.08621 9.86785 1.1737 9.83315 1.25504C9.79846 1.33638 9.74803 1.40994 9.6848 1.47144L6.18081 5.00028L9.6848 8.52912C9.80539 8.65486 9.87211 8.82327 9.8706 8.99807C9.8691 9.17288 9.79947 9.3401 9.67673 9.46371C9.55399 9.58732 9.38795 9.65744 9.21438 9.65895C9.0408 9.66047 8.87358 9.59327 8.74872 9.47183L5.24473 5.94299L1.74074 9.47183C1.61588 9.59327 1.44866 9.66047 1.27509 9.65895C1.10151 9.65744 0.935471 9.58732 0.81273 9.46371C0.689989 9.3401 0.620366 9.17288 0.618858 8.99807C0.61735 8.82327 0.684076 8.65486 0.804666 8.52912L4.30866 5.00028L0.804666 1.47144C0.680559 1.34642 0.61084 1.17687 0.61084 1.00009C0.61084 0.823302 0.680559 0.653755 0.804666 0.528731Z" fill="#CBCBCB"/>
</svg>
