<svg width="21" height="21" viewBox="0 0 21 21" fill="none" xmlns="http://www.w3.org/2000/svg">
<path d="M7.21863 18.375C7.9435 18.375 8.53113 17.7874 8.53113 17.0625C8.53113 16.3376 7.9435 15.75 7.21863 15.75C6.49375 15.75 5.90613 16.3376 5.90613 17.0625C5.90613 17.7874 6.49375 18.375 7.21863 18.375Z" fill="#4C4C5B"/>
<path d="M16.4062 18.375C17.1311 18.375 17.7188 17.7874 17.7188 17.0625C17.7188 16.3376 17.1311 15.75 16.4062 15.75C15.6814 15.75 15.0938 16.3376 15.0938 17.0625C15.0938 17.7874 15.6814 18.375 16.4062 18.375Z" fill="#4C4C5B"/>
<path d="M18.7359 4.95411C18.6437 4.84134 18.5276 4.75051 18.3959 4.68822C18.2642 4.62593 18.1203 4.59374 17.9747 4.59399H5.49158L5.24016 3.16747C5.21335 3.01552 5.13385 2.87787 5.01564 2.77871C4.89742 2.67955 4.74805 2.62521 4.59375 2.62524H1.96875C1.7947 2.62524 1.62778 2.69438 1.50471 2.81746C1.38164 2.94053 1.3125 3.10745 1.3125 3.28149C1.3125 3.45554 1.38164 3.62246 1.50471 3.74553C1.62778 3.8686 1.7947 3.93774 1.96875 3.93774H4.04332L5.91609 14.5518C5.9429 14.7037 6.0224 14.8414 6.14061 14.9405C6.25882 15.0397 6.4082 15.094 6.5625 15.094H17.0625C17.2365 15.094 17.4035 15.0248 17.5265 14.9018C17.6496 14.7787 17.7187 14.6118 17.7187 14.4377C17.7187 14.2637 17.6496 14.0968 17.5265 13.9737C17.4035 13.8506 17.2365 13.7815 17.0625 13.7815H7.11293L6.8816 12.469H16.7934C17.021 12.4687 17.2415 12.3898 17.4176 12.2456C17.5937 12.1014 17.7146 11.9009 17.7598 11.6778L18.941 5.77155C18.9695 5.62861 18.9658 5.48114 18.9304 5.33977C18.8949 5.19841 18.8285 5.06669 18.7359 4.95411Z" fill="#4C4C5B"/>
</svg>
