<svg width="23" height="22" viewBox="0 0 23 22" fill="none" xmlns="http://www.w3.org/2000/svg">
<path d="M22.4231 6.66397V6.66304C22.4231 6.6621 22.4228 6.6614 22.4228 6.66047C22.4226 6.63529 22.4187 6.61011 22.4124 6.58539C22.4103 6.57746 22.4075 6.57 22.4049 6.56231C22.3992 6.54529 22.3919 6.5285 22.383 6.51194C22.3784 6.50331 22.3734 6.49469 22.368 6.48653C22.3643 6.48093 22.3617 6.47464 22.3578 6.46927C22.3508 6.45995 22.3422 6.45225 22.3344 6.44362C22.3282 6.43663 22.3224 6.42963 22.3157 6.4231C22.2957 6.40398 22.2741 6.38696 22.2504 6.37274C22.2502 6.37251 22.2499 6.37227 22.2496 6.37204L22.2494 6.37181C22.2486 6.37134 22.2478 6.37087 22.2473 6.37041L12.7899 0.726552C12.6589 0.648441 12.4885 0.648441 12.3575 0.726552L9.02855 2.71665L9.02829 2.71688L5.96952 4.54516C5.92766 4.56172 5.88839 4.58433 5.85459 4.61395L0.676562 7.7095C0.651599 7.72419 0.628716 7.74238 0.607393 7.76243C0.600632 7.76896 0.594912 7.77595 0.588671 7.78295C0.58087 7.79157 0.572289 7.79903 0.565268 7.80859C0.561108 7.81396 0.558767 7.82002 0.555127 7.82562C0.549666 7.83401 0.544466 7.84264 0.539785 7.85173C0.531204 7.86782 0.524183 7.88437 0.518462 7.90116C0.515602 7.90932 0.512742 7.91702 0.510661 7.92518C0.504681 7.94896 0.50104 7.97298 0.50078 7.99723C0.50078 7.99909 0.5 8.00073 0.5 8.00236V8.00422V8.00446V15.8765C0.5 15.9935 0.565268 16.1029 0.673962 16.1677L10.1332 21.8132C10.1345 21.8139 10.1358 21.8141 10.1371 21.8148C10.1644 21.8307 10.1943 21.8426 10.2255 21.8521C10.2333 21.8545 10.2408 21.8568 10.2486 21.8587C10.2809 21.8664 10.3141 21.8717 10.349 21.8717C10.3838 21.8717 10.4171 21.8664 10.4494 21.8584C10.4572 21.8566 10.465 21.8542 10.4725 21.8519C10.5045 21.8423 10.5352 21.8302 10.5627 21.8139C10.5635 21.8134 10.5643 21.8132 10.5651 21.813L10.5666 21.812C10.5669 21.812 10.5669 21.8118 10.5672 21.8118L22.2489 14.8284C22.3573 14.7636 22.4226 14.6544 22.4226 14.5374V6.6656C22.4231 6.66513 22.4231 6.66443 22.4231 6.66397ZM12.5741 1.43772L21.3294 6.66327L18.5603 8.31877L9.93528 3.01534L12.5741 1.43772ZM10.3493 13.2274L1.59344 8.00189L6.1297 5.29014L14.755 10.5936L10.3493 13.2274ZM9.23579 3.43341L17.8608 8.73684L15.4542 10.1755L6.82893 4.87206L9.23579 3.43341ZM15.8331 10.7897L18.1487 9.40534L18.0662 12.7009L15.8331 14.0146V10.7897ZM1.2801 8.655L9.9592 13.8351V20.8689L1.2801 15.689V8.655ZM10.7393 20.8684V13.8348L15.053 11.256V14.6624C15.053 14.7908 15.1318 14.9091 15.2576 14.9701C15.3159 14.9981 15.3796 15.0121 15.443 15.0121C15.5177 15.0121 15.5923 14.993 15.657 14.9548L18.6656 13.1848C18.7727 13.1216 18.8385 13.0153 18.8417 12.9001L18.9407 8.93177L21.643 7.31637V14.3502L10.7393 20.8684Z" fill="#383838"/>
<path d="M9.24529 15.5727C9.3714 15.5727 9.49518 15.5181 9.57033 15.4167C9.68968 15.256 9.64106 15.0387 9.46189 14.9317L4.99298 12.2645C4.81355 12.1575 4.5712 12.2008 4.45211 12.362C4.33275 12.5226 4.38138 12.7399 4.56054 12.8469L9.02972 15.5142C9.09603 15.5538 9.17118 15.5727 9.24529 15.5727Z" fill="#383838"/>
<path d="M9.46237 16.756L6.90313 15.2285C6.72371 15.1215 6.48136 15.1651 6.36227 15.326C6.24291 15.4867 6.29154 15.704 6.4707 15.811L9.02993 17.3385C9.09624 17.3781 9.17139 17.397 9.24576 17.397C9.37188 17.397 9.49565 17.3425 9.5708 17.241C9.69016 17.0801 9.64153 16.8631 9.46237 16.756Z" fill="#383838"/>
</svg>
