<svg width="24" height="25" viewBox="0 0 24 25" fill="none" xmlns="http://www.w3.org/2000/svg">
<path d="M21.3408 2.24951H2.65922C2.35181 2.24964 2.05703 2.37181 1.83966 2.58918C1.6223 2.80654 1.50012 3.10132 1.5 3.40873V22.0903C1.50012 22.3977 1.6223 22.6925 1.83966 22.9098C2.05703 23.1272 2.35181 23.2494 2.65922 23.2495H12V14.9995H9.48984V11.9995H12V9.60888C12 6.8967 13.8811 5.42014 16.3041 5.42014C17.4633 5.42014 18.7101 5.50732 18.9998 5.54576V8.37842H17.0695C15.7514 8.37842 15.5002 9.00185 15.5002 9.9206V11.9995H18.6408L18.2306 14.9995H15.5002V23.2495H21.3408C21.6482 23.2494 21.943 23.1272 22.1603 22.9098C22.3777 22.6925 22.4999 22.3977 22.5 22.0903V3.40873C22.4999 3.10132 22.3777 2.80654 22.1603 2.58918C21.943 2.37181 21.6482 2.24964 21.3408 2.24951V2.24951Z" fill="black"/>
</svg>
