<svg width="28" height="30" viewBox="0 0 28 30" fill="none" xmlns="http://www.w3.org/2000/svg">
<path d="M19.104 3.95642C20.4565 3.96063 21.7526 4.52316 22.709 5.52116C23.6654 6.51915 24.2045 7.87151 24.2085 9.28288V19.9347C24.2045 21.346 23.6654 22.6984 22.709 23.6964C21.7526 24.6944 20.4565 25.2569 19.104 25.2611H8.89601C7.54345 25.2569 6.24744 24.6944 5.29103 23.6964C4.33462 22.6984 3.79552 21.346 3.79148 19.9347V9.28288C3.79552 7.87151 4.33462 6.51915 5.29103 5.52116C6.24744 4.52316 7.54345 3.96063 8.89601 3.95642H19.104ZM19.104 1.82617H8.89601C4.96562 1.82617 1.75 5.18161 1.75 9.28288V19.9347C1.75 24.0359 4.96562 27.3914 8.89601 27.3914H19.104C23.0344 27.3914 26.25 24.0359 26.25 19.9347V9.28288C26.25 5.18161 23.0344 1.82617 19.104 1.82617Z" fill="black"/>
<path d="M20.6348 9.28257C20.3319 9.28257 20.0359 9.18886 19.7841 9.01328C19.5322 8.83771 19.336 8.58817 19.2201 8.2962C19.1042 8.00424 19.0739 7.68297 19.1329 7.37302C19.192 7.06307 19.3379 6.77837 19.552 6.55491C19.7662 6.33145 20.039 6.17927 20.336 6.11762C20.6331 6.05596 20.941 6.08761 21.2208 6.20854C21.5005 6.32948 21.7397 6.53427 21.908 6.79704C22.0762 7.0598 22.166 7.36872 22.166 7.68474C22.1664 7.8947 22.1271 8.10267 22.0503 8.29674C21.9735 8.4908 21.8608 8.66712 21.7185 8.81558C21.5762 8.96404 21.4072 9.08172 21.2213 9.16186C21.0353 9.242 20.836 9.28302 20.6348 9.28257Z" fill="black"/>
<path d="M14 10.347C14.8076 10.347 15.5971 10.5969 16.2687 11.0652C16.9402 11.5334 17.4636 12.1989 17.7727 12.9775C18.0817 13.7561 18.1626 14.6128 18.0051 15.4394C17.8475 16.266 17.4586 17.0252 16.8875 17.6211C16.3164 18.217 15.5888 18.6229 14.7967 18.7873C14.0045 18.9517 13.1835 18.8673 12.4373 18.5448C11.6911 18.2223 11.0534 17.6761 10.6047 16.9754C10.156 16.2747 9.91649 15.4509 9.91649 14.6081C9.91764 13.4784 10.3482 12.3953 11.1138 11.5964C11.8794 10.7976 12.9173 10.3482 14 10.347ZM14 8.2168C12.7886 8.2168 11.6044 8.59164 10.5971 9.29393C9.58988 9.99621 8.80483 10.9944 8.34124 12.1623C7.87765 13.3301 7.75636 14.6152 7.99269 15.855C8.22903 17.0948 8.81238 18.2336 9.66897 19.1274C10.5256 20.0213 11.6169 20.63 12.8051 20.8766C13.9932 21.1232 15.2247 20.9966 16.3439 20.5129C17.4631 20.0292 18.4197 19.21 19.0928 18.1589C19.7658 17.1079 20.125 15.8722 20.125 14.6081C20.125 12.913 19.4797 11.2874 18.331 10.0888C17.1824 8.89016 15.6245 8.2168 14 8.2168Z" fill="black"/>
</svg>
