<svg width="24" height="25" viewBox="0 0 24 25" fill="none" xmlns="http://www.w3.org/2000/svg">
<path d="M16.3748 3.99984C17.5342 4.00331 18.645 4.46539 19.4648 5.28517C20.2846 6.10495 20.7467 7.21581 20.7501 8.37515V17.1248C20.7467 18.2842 20.2846 19.395 19.4648 20.2148C18.645 21.0346 17.5342 21.4967 16.3748 21.5001H7.62515C6.46581 21.4967 5.35495 21.0346 4.53517 20.2148C3.71539 19.395 3.25331 18.2842 3.24984 17.1248V8.37515C3.25331 7.21581 3.71539 6.10495 4.53517 5.28517C5.35495 4.46539 6.46581 4.00331 7.62515 3.99984H16.3748V3.99984ZM16.3748 2.25H7.62515C4.25625 2.25 1.5 5.00625 1.5 8.37515V17.1248C1.5 20.4937 4.25625 23.25 7.62515 23.25H16.3748C19.7437 23.25 22.5 20.4937 22.5 17.1248V8.37515C22.5 5.00625 19.7437 2.25 16.3748 2.25V2.25Z" fill="black"/>
<path d="M17.6875 8.375C17.4279 8.375 17.1742 8.29802 16.9583 8.1538C16.7425 8.00958 16.5742 7.8046 16.4749 7.56477C16.3756 7.32494 16.3496 7.06104 16.4002 6.80644C16.4509 6.55184 16.5759 6.31798 16.7594 6.13442C16.943 5.95087 17.1768 5.82586 17.4314 5.77522C17.686 5.72458 17.9499 5.75057 18.1898 5.84991C18.4296 5.94925 18.6346 6.11747 18.7788 6.33331C18.923 6.54915 19 6.80291 19 7.0625C19.0004 7.23496 18.9667 7.4058 18.9008 7.56521C18.835 7.72462 18.7384 7.86945 18.6164 7.9914C18.4945 8.11335 18.3496 8.21002 18.1902 8.27585C18.0308 8.34167 17.86 8.37537 17.6875 8.375V8.375Z" fill="black"/>
<path d="M12 9.24935C12.6923 9.24935 13.369 9.45464 13.9446 9.83924C14.5202 10.2238 14.9688 10.7705 15.2337 11.4101C15.4986 12.0496 15.568 12.7534 15.4329 13.4324C15.2978 14.1113 14.9645 14.735 14.475 15.2245C13.9855 15.714 13.3618 16.0474 12.6828 16.1824C12.0039 16.3175 11.3001 16.2481 10.6605 15.9832C10.021 15.7183 9.47433 15.2697 9.08973 14.6941C8.70513 14.1185 8.49985 13.4418 8.49985 12.7495C8.50084 11.8215 8.86992 10.9318 9.52611 10.2756C10.1823 9.61943 11.072 9.25035 12 9.24935V9.24935ZM12 7.49951C10.9616 7.49951 9.94662 7.80742 9.08326 8.3843C8.2199 8.96117 7.54699 9.78111 7.14963 10.7404C6.75227 11.6997 6.64831 12.7553 6.85088 13.7737C7.05345 14.7921 7.55347 15.7276 8.28769 16.4618C9.02192 17.196 9.95738 17.6961 10.9758 17.8986C11.9942 18.1012 13.0498 17.9972 14.0091 17.5999C14.9684 17.2025 15.7883 16.5296 16.3652 15.6663C16.9421 14.8029 17.25 13.7879 17.25 12.7495C17.25 11.3571 16.6969 10.0218 15.7123 9.0372C14.7277 8.05264 13.3924 7.49951 12 7.49951V7.49951Z" fill="black"/>
</svg>
