<svg width="35" height="25" viewBox="0 0 35 25" fill="none" xmlns="http://www.w3.org/2000/svg">
<rect x="0.5" y="0.75" width="34" height="23" rx="5.5" fill="white" stroke="#D9D9D9"/>
<path d="M20.0951 12.3771C20.0951 16.1895 17.0399 19.2801 13.2713 19.2801C9.50262 19.2801 6.44751 16.1895 6.44751 12.3771C6.44751 8.56469 9.50262 5.47412 13.2713 5.47412C17.0399 5.47412 20.0951 8.56469 20.0951 12.3771Z" fill="#ED0006"/>
<path d="M28.9476 12.3771C28.9476 16.1895 25.8925 19.2801 22.1238 19.2801C18.3552 19.2801 15.3 16.1895 15.3 12.3771C15.3 8.56469 18.3552 5.47412 22.1238 5.47412C25.8925 5.47412 28.9476 8.56469 28.9476 12.3771Z" fill="#0099DF"/>
<path fill-rule="evenodd" clip-rule="evenodd" d="M17.6976 7.12305C19.1648 8.38918 20.0951 10.2732 20.0951 12.377C20.0951 14.4808 19.1648 16.3648 17.6976 17.6309C16.2304 16.3648 15.3 14.4808 15.3 12.377C15.3 10.2732 16.2304 8.38918 17.6976 7.12305Z" fill="#6C6BBD"/>
</svg>
