<svg width="34" height="25" viewBox="0 0 34 25" fill="none" xmlns="http://www.w3.org/2000/svg">
<rect x="0.5" y="0.75" width="33" height="23" rx="3.5" fill="white" stroke="#D9D9D9"/>
<path fill-rule="evenodd" clip-rule="evenodd" d="M17.179 17.0792C15.9949 18.0773 14.459 18.6798 12.7807 18.6798C9.03582 18.6798 6 15.6801 6 11.9798C6 8.27948 9.03582 5.27979 12.7807 5.27979C14.459 5.27979 15.9949 5.88228 17.179 6.88033C18.363 5.88228 19.8989 5.27979 21.5773 5.27979C25.3221 5.27979 28.358 8.27948 28.358 11.9798C28.358 15.6801 25.3221 18.6798 21.5773 18.6798C19.8989 18.6798 18.363 18.0773 17.179 17.0792Z" fill="#ED0006"/>
<path fill-rule="evenodd" clip-rule="evenodd" d="M17.179 17.0792C18.6369 15.8503 19.5614 14.0217 19.5614 11.9798C19.5614 9.93783 18.6369 8.10923 17.179 6.88032C18.363 5.88228 19.8989 5.27979 21.5772 5.27979C25.3221 5.27979 28.3579 8.27948 28.3579 11.9798C28.3579 15.6801 25.3221 18.6798 21.5772 18.6798C19.8989 18.6798 18.363 18.0773 17.179 17.0792Z" fill="#F9A000"/>
<path fill-rule="evenodd" clip-rule="evenodd" d="M17.179 17.0792C18.6369 15.8503 19.5614 14.0217 19.5614 11.9798C19.5614 9.93787 18.6369 8.10927 17.179 6.88037C15.7211 8.10927 14.7966 9.93787 14.7966 11.9798C14.7966 14.0217 15.7211 15.8503 17.179 17.0792Z" fill="#FF5E00"/>
</svg>
