<svg width="25" height="25" viewBox="0 0 25 25" fill="none" xmlns="http://www.w3.org/2000/svg">
<path d="M10.9375 2.52783C4.89746 2.52783 0 7.22939 0 13.0278C0 17.3263 2.69531 21.02 6.54785 22.6466C6.51855 21.9153 6.54297 21.0341 6.73828 20.2372C6.94824 19.3841 8.14453 14.5138 8.14453 14.5138C8.14453 14.5138 7.79297 13.8435 7.79297 12.8544C7.79297 11.2981 8.73047 10.1356 9.90234 10.1356C10.8984 10.1356 11.377 10.8528 11.377 11.7106C11.377 12.6716 10.7373 14.106 10.4102 15.4372C10.1367 16.5528 10.9912 17.4575 12.1387 17.4575C14.209 17.4575 15.6055 14.9028 15.6055 11.8747C15.6055 9.57314 13.9893 7.85283 11.0547 7.85283C7.73926 7.85283 5.66894 10.2294 5.66894 12.8825C5.66894 13.7966 5.95215 14.4435 6.3916 14.9403C6.5918 15.17 6.62109 15.2638 6.54785 15.5263C6.49414 15.7185 6.37695 16.1825 6.32324 16.37C6.25 16.6372 6.02539 16.731 5.77637 16.6325C4.24805 16.0325 3.53516 14.4294 3.53516 12.62C3.53516 9.63877 6.15722 6.06221 11.3525 6.06221C15.5273 6.06221 18.2764 8.96377 18.2764 12.0763C18.2764 16.1966 15.8887 19.2716 12.373 19.2716C11.1914 19.2716 10.083 18.6575 9.70215 17.9638C9.70215 17.9638 9.06738 20.3825 8.93066 20.8513C8.70117 21.6622 8.24707 22.4685 7.83203 23.1013C8.83881 23.3864 9.88294 23.5316 10.9326 23.5325C16.9727 23.5325 21.8701 18.831 21.8701 13.0325C21.8701 7.23408 16.9775 2.52783 10.9375 2.52783Z" fill="black"/>
</svg>
