<svg width="15" height="15" viewBox="0 0 15 15" fill="none" xmlns="http://www.w3.org/2000/svg">
<path fill-rule="evenodd" clip-rule="evenodd" d="M1.0716 1.07261C1.25132 0.892943 1.49503 0.792011 1.74914 0.792011C2.00326 0.792011 2.24697 0.892943 2.42669 1.07261L7.49914 6.14532L12.5716 1.07261C12.66 0.981076 12.7658 0.908065 12.8827 0.857837C12.9996 0.807609 13.1253 0.781171 13.2526 0.780065C13.3798 0.77896 13.506 0.803208 13.6238 0.851396C13.7416 0.899584 13.8486 0.970747 13.9386 1.06073C14.0285 1.15072 14.0997 1.25772 14.1479 1.3755C14.1961 1.49328 14.2203 1.61948 14.2192 1.74674C14.2181 1.87399 14.1917 1.99975 14.1414 2.11667C14.0912 2.2336 14.0182 2.33935 13.9267 2.42776L8.85423 7.50046L13.9267 12.5732C14.1013 12.7539 14.1978 12.996 14.1957 13.2473C14.1935 13.4986 14.0927 13.739 13.915 13.9166C13.7373 14.0943 13.497 14.1951 13.2457 14.1973C12.9944 14.1995 12.7523 14.1029 12.5716 13.9283L7.49914 8.85561L2.42669 13.9283C2.24594 14.1029 2.00386 14.1995 1.75259 14.1973C1.50132 14.1951 1.26096 14.0943 1.08328 13.9166C0.905594 13.739 0.804807 13.4986 0.802623 13.2473C0.80044 12.996 0.897035 12.7539 1.0716 12.5732L6.14406 7.50046L1.0716 2.42776C0.891943 2.24804 0.791016 2.00431 0.791016 1.75019C0.791016 1.49606 0.891943 1.25233 1.0716 1.07261V1.07261Z" fill="#CBCBCB"/>
</svg>
