<svg width="27" height="17" viewBox="0 0 27 17" fill="none" xmlns="http://www.w3.org/2000/svg">
<path d="M11.2356 7.21045C9.16638 7.21045 7.48267 8.89418 7.48267 10.9635C7.48267 13.0328 9.16611 14.7162 11.2356 14.7162C13.3052 14.7162 14.9886 13.0328 14.9886 10.9635C14.9886 8.89418 13.3049 7.21045 11.2356 7.21045ZM11.2356 13.9093C9.61139 13.9093 8.28982 12.588 8.28982 10.9637C8.28982 9.33947 9.61139 8.01788 11.2356 8.01788C12.8602 8.01788 14.1815 9.33947 14.1815 10.9637C14.1815 12.588 12.8599 13.9093 11.2356 13.9093Z" fill="#4C4C5B"/>
<path d="M3.33595 7.21094C3.11291 7.21094 2.93237 7.39147 2.93237 7.61452V14.3129C2.93237 14.5356 3.11291 14.7164 3.33595 14.7164C3.55899 14.7164 3.73952 14.5356 3.73952 14.3129V7.61452C3.73952 7.39147 3.55899 7.21094 3.33595 7.21094Z" fill="#4C4C5B"/>
<path d="M19.0078 7.21094C18.785 7.21094 18.6042 7.39147 18.6042 7.61452V14.3129C18.6042 14.5356 18.785 14.7164 19.0078 14.7164C19.2306 14.7164 19.4114 14.5356 19.4114 14.3129V7.61452C19.4114 7.39147 19.2309 7.21094 19.0078 7.21094Z" fill="#4C4C5B"/>
<path d="M25.637 0.150391H5.88388C5.66084 0.150391 5.4803 0.330925 5.4803 0.55397V2.55007H3.67229C3.44924 2.55007 3.26871 2.73061 3.26871 2.95365V5.1728H1.26832C1.04528 5.1728 0.864746 5.35334 0.864746 5.57638V16.3511C0.864746 16.5739 1.04528 16.7547 1.26832 16.7547H21.0217C21.2445 16.7547 21.4253 16.5739 21.4253 16.3511V14.132H23.426C23.6487 14.132 23.8295 13.9512 23.8295 13.7284V11.7323H25.6373C25.8601 11.7323 26.0409 11.5515 26.0409 11.3287V0.55397C26.0406 0.330925 25.8598 0.150391 25.637 0.150391ZM1.6719 15.9476V5.97996H20.6181V13.7257C20.6181 13.7265 20.6179 13.7273 20.6179 13.7284C20.6179 13.7295 20.6181 13.73 20.6181 13.7311V15.9476H1.6719ZM23.0221 13.3248H21.425V5.57638C21.425 5.35334 21.2442 5.1728 21.0215 5.1728H4.07586V3.35723H23.0221V13.3248ZM25.2334 10.9252H23.8293V2.95365C23.8293 2.73061 23.6485 2.55007 23.4257 2.55007H6.28745V0.957549H25.2334V10.9252Z" fill="#4C4C5B"/>
</svg>
