<svg width="26" height="18" viewBox="0 0 26 18" fill="none" xmlns="http://www.w3.org/2000/svg">
<path d="M25.3343 8.84982H23.1694V5.19636C23.1694 4.96505 22.9819 4.77783 22.7509 4.77783H15.9706V1.13191C15.9706 0.9006 15.7831 0.713379 15.5521 0.713379H0.567444C0.336143 0.713379 0.148926 0.9006 0.148926 1.13191V14.8554C0.148926 15.0864 0.336143 15.2739 0.567444 15.2739H4.0657C4.21079 16.3529 5.13488 17.1883 6.2526 17.1883C7.37032 17.1883 8.29441 16.3529 8.4395 15.2739H15.5521H18.2546C18.3997 16.3529 19.3243 17.1883 20.4432 17.1883C21.562 17.1883 22.4867 16.3529 22.632 15.2739H25.3345C25.5656 15.2739 25.753 15.0864 25.753 14.8554V9.26835C25.7528 9.03704 25.5653 8.84982 25.3343 8.84982ZM6.2526 16.3512C5.4962 16.3512 4.8807 15.7354 4.8807 14.9784C4.8807 14.2215 5.4962 13.6057 6.2526 13.6057C7.009 13.6057 7.6245 14.2215 7.6245 14.9784C7.6245 15.7354 7.00928 16.3512 6.2526 16.3512ZM6.2526 12.7686C5.22165 12.7686 4.35615 13.4798 4.11369 14.4369H0.985963V1.55043H15.1336V5.19636V9.26835V14.4366H8.39179C8.14933 13.4798 7.28355 12.7686 6.2526 12.7686ZM20.4432 16.3512C19.6856 16.3512 19.0696 15.7354 19.0696 14.9784C19.0696 14.2215 19.6856 13.6057 20.4432 13.6057C21.2007 13.6057 21.817 14.2215 21.817 14.9784C21.817 15.7354 21.2004 16.3512 20.4432 16.3512ZM24.9157 14.4366H22.584C22.3413 13.4796 21.475 12.7683 20.4432 12.7683C19.4114 12.7683 18.545 13.4796 18.3026 14.4366H15.9709V9.26835V5.61489H22.3326V9.26835C22.3326 9.49937 22.5201 9.68687 22.7512 9.68687H24.916V14.4366H24.9157Z" fill="#4C4C5B"/>
</svg>
