<svg width="15" height="16" viewBox="0 0 15 16" fill="none" xmlns="http://www.w3.org/2000/svg">
<path fill-rule="evenodd" clip-rule="evenodd" d="M6.08899 0.744489C6.24521 0.90077 6.33298 1.1127 6.33298 1.33368C6.33298 1.55467 6.24521 1.7666 6.08899 1.92288L3.34482 4.66718H7.99982C9.76793 4.66718 11.4636 5.36959 12.7139 6.6199C13.9641 7.8702 14.6665 9.56598 14.6665 11.3342V14.6677C14.6665 14.8887 14.5787 15.1007 14.4224 15.257C14.2661 15.4132 14.0542 15.501 13.8332 15.501C13.6121 15.501 13.4002 15.4132 13.2439 15.257C13.0876 15.1007 12.9998 14.8887 12.9998 14.6677V11.3342C12.9998 10.008 12.473 8.73619 11.5354 7.79847C10.5977 6.86074 9.3259 6.33393 7.99982 6.33393H3.34482L6.08899 9.07823C6.24079 9.2354 6.32478 9.44592 6.32288 9.66442C6.32098 9.88293 6.23334 10.092 6.07884 10.2465C5.92433 10.401 5.71532 10.4886 5.49682 10.4905C5.27833 10.4924 5.06782 10.4084 4.91066 10.2566L0.743989 6.08975C0.587763 5.93347 0.5 5.72154 0.5 5.50055C0.5 5.27957 0.587763 5.06764 0.743989 4.91136L4.91066 0.744489C5.06693 0.588255 5.27885 0.500488 5.49982 0.500488C5.72079 0.500488 5.93272 0.588255 6.08899 0.744489Z" fill="white"/>
</svg>
