<svg width="20" height="21" viewBox="0 0 20 21" fill="none" xmlns="http://www.w3.org/2000/svg">
<path d="M8.72164 3.21924C7.54502 3.21924 6.39482 3.56815 5.41649 4.22185C4.43816 4.87554 3.67565 5.80467 3.22537 6.89173C2.7751 7.97879 2.65729 9.17496 2.88684 10.329C3.11638 11.483 3.68298 12.543 4.51498 13.375C5.34698 14.207 6.40701 14.7736 7.56103 15.0032C8.71504 15.2327 9.91121 15.1149 10.9983 14.6646C12.0853 14.2144 13.0145 13.4518 13.6682 12.4735C14.3219 11.4952 14.6708 10.345 14.6708 9.16836C14.6707 7.59059 14.0439 6.07746 12.9282 4.96181C11.8125 3.84615 10.2994 3.21934 8.72164 3.21924V3.21924Z" stroke="#999999" stroke-width="1.5" stroke-miterlimit="10"/>
<path d="M13.1601 13.6062L17.3149 17.761" stroke="#999999" stroke-width="1.5" stroke-miterlimit="10" stroke-linecap="round"/>
</svg>
