<svg width="19" height="19" viewBox="0 0 19 19" fill="none" xmlns="http://www.w3.org/2000/svg">
<path d="M8.20451 2.37549C7.05154 2.37549 5.92447 2.71738 4.96581 3.35794C4.00715 3.99849 3.25997 4.90894 2.81875 5.97414C2.37753 7.03935 2.26208 8.21147 2.48701 9.34228C2.71195 10.4731 3.26715 11.5118 4.08243 12.3271C4.8977 13.1424 5.93642 13.6976 7.06723 13.9225C8.19804 14.1474 9.37016 14.032 10.4354 13.5908C11.5006 13.1495 12.411 12.4024 13.0516 11.4437C13.6921 10.485 14.034 9.35797 14.034 8.205C14.0339 6.65895 13.4197 5.17625 12.3265 4.08302C11.2333 2.9898 9.75056 2.37559 8.20451 2.37549V2.37549Z" stroke="#4C4C5B" stroke-width="1.5" stroke-miterlimit="10"/>
<path d="M12.5537 12.5537L16.625 16.625" stroke="#4C4C5B" stroke-width="1.5" stroke-miterlimit="10" stroke-linecap="round"/>
</svg>
