<svg width="10" height="6" viewBox="0 0 10 6" fill="none" xmlns="http://www.w3.org/2000/svg">
<path fill-rule="evenodd" clip-rule="evenodd" d="M0.504777 0.837762C0.614168 0.728398 0.762514 0.666961 0.917193 0.666961C1.07187 0.666961 1.22022 0.728398 1.32961 0.837762L5.00053 4.50886L8.67144 0.837762C8.72525 0.782045 8.78962 0.737602 8.86079 0.707029C8.93196 0.676456 9.0085 0.660363 9.08596 0.65969C9.16341 0.659017 9.24023 0.673777 9.31192 0.703109C9.38361 0.732441 9.44874 0.775758 9.50351 0.830531C9.55828 0.885304 9.60159 0.950438 9.63092 1.02213C9.66025 1.09382 9.67501 1.17064 9.67434 1.2481C9.67367 1.32556 9.65757 1.40211 9.627 1.47328C9.59643 1.54445 9.55199 1.60882 9.49628 1.66264L5.41294 5.74617C5.30355 5.85554 5.15521 5.91697 5.00053 5.91697C4.84585 5.91697 4.6975 5.85554 4.58811 5.74617L0.504777 1.66264C0.395418 1.55324 0.333984 1.40489 0.333984 1.2502C0.333984 1.09551 0.395418 0.947158 0.504777 0.837762Z" fill="black"/>
</svg>
