<svg width="28" height="29" viewBox="0 0 28 29" fill="none" xmlns="http://www.w3.org/2000/svg">
<circle cx="14" cy="14.75" r="14" fill="#2F89CE"/>
<path d="M6.54627 15.0118L9.76494 16.2119L11.0197 20.2489C11.0742 20.5217 11.4015 20.5762 11.6198 20.4126L13.42 18.9396C13.5837 18.776 13.8565 18.776 14.0747 18.9396L17.2933 21.2854C17.5115 21.4491 17.8389 21.34 17.8934 21.0672L20.2938 9.61096C20.3483 9.33819 20.0756 9.06543 19.8028 9.17454L6.54627 14.3026C6.21895 14.4117 6.21895 14.9027 6.54627 15.0118ZM10.856 15.6118L17.1842 11.7385C17.2933 11.684 17.4024 11.8477 17.2933 11.9022L12.1107 16.7575C11.9471 16.9211 11.7834 17.1393 11.7834 17.4121L11.6198 18.7214C11.6198 18.8851 11.347 18.9396 11.2924 18.7214L10.6378 16.321C10.4741 16.0483 10.5832 15.721 10.856 15.6118Z" fill="white"/>
</svg>
