<svg width="34" height="25" viewBox="0 0 34 25" fill="none" xmlns="http://www.w3.org/2000/svg">
<rect x="0.5" y="0.75" width="33" height="23" rx="3.5" fill="white" stroke="#D9D9D9"/>
<path fill-rule="evenodd" clip-rule="evenodd" d="M10.7503 16.1083H8.69056L7.146 10.0425C7.07269 9.76344 6.91703 9.51676 6.68806 9.4005C6.11664 9.10833 5.48696 8.8758 4.80005 8.75853V8.52499H8.11813C8.57607 8.52499 8.91953 8.8758 8.97677 9.28323L9.77817 13.6587L11.8369 8.52499H13.8394L10.7503 16.1083ZM14.9843 16.1083H13.039L14.6408 8.52499H16.5861L14.9843 16.1083ZM19.1028 10.6258C19.16 10.2174 19.5035 9.98384 19.9042 9.98384C20.5338 9.9252 21.2197 10.0425 21.7922 10.3336L22.1356 8.70091C21.5632 8.46737 20.9335 8.3501 20.3621 8.3501C18.4741 8.3501 17.1003 9.4005 17.1003 10.8583C17.1003 11.9674 18.0734 12.5497 18.7603 12.9005C19.5035 13.2503 19.7897 13.4838 19.7324 13.8336C19.7324 14.3583 19.16 14.5919 18.5886 14.5919C17.9017 14.5919 17.2147 14.417 16.5861 14.1248L16.2426 15.7586C16.9295 16.0497 17.6727 16.167 18.3596 16.167C20.4766 16.2246 21.7922 15.1752 21.7922 13.6001C21.7922 11.6166 19.1028 11.5003 19.1028 10.6258ZM28.6 16.1083L27.0555 8.52499H25.3965C25.053 8.52499 24.7095 8.75853 24.5951 9.10833L21.7349 16.1083H23.7374L24.1371 15.0003H26.5976L26.8265 16.1083H28.6ZM25.6827 10.5672L26.2541 13.4252H24.6523L25.6827 10.5672Z" fill="#172B85"/>
</svg>
