<svg width="26" height="27" viewBox="0 0 26 27" fill="none" xmlns="http://www.w3.org/2000/svg">
<path d="M16.3284 2.9165H9.68164C3.61043 2.9165 2.16602 4.36092 2.16602 10.4208V17.0675C2.16602 23.1387 3.5992 24.5832 9.67033 24.5832H16.3171C22.3883 24.5832 23.8327 23.15 23.8327 17.0788V10.4321C23.8327 4.36092 22.3995 2.9165 16.3284 2.9165ZM19.6573 18.3765H18.0775C17.4794 18.3765 17.2988 17.8913 16.2268 16.8193C15.2901 15.9165 14.8952 15.8036 14.6582 15.8036C14.331 15.8036 14.2406 15.8939 14.2406 16.3453V17.7672C14.2406 18.1509 14.1165 18.3765 13.1122 18.3765C12.1376 18.3111 11.1926 18.015 10.3548 17.5127C9.51705 17.0105 8.8106 16.3164 8.29362 15.4876C7.06632 13.96 6.21238 12.1672 5.79972 10.2515C5.79972 10.0146 5.88997 9.80014 6.34139 9.80014H7.92122C8.32747 9.80014 8.4742 9.98072 8.63216 10.3983C9.3995 12.6552 10.7086 14.6187 11.2389 14.6187C11.4421 14.6187 11.5323 14.5285 11.5323 14.0207V11.696C11.4646 10.6353 10.9004 10.5449 10.9004 10.1613C10.9078 10.0601 10.9544 9.96574 11.0303 9.89831C11.1061 9.83088 11.2053 9.79567 11.3066 9.80014H13.7893C14.1278 9.80014 14.2406 9.96942 14.2406 10.3757V13.5129C14.2406 13.8514 14.3874 13.9642 14.4889 13.9642C14.6921 13.9642 14.85 13.8514 15.2224 13.479C16.0227 12.5031 16.6765 11.4159 17.1634 10.2515C17.2131 10.1114 17.3073 9.99147 17.4316 9.90996C17.5559 9.82844 17.7035 9.78987 17.8518 9.80014H19.4316C19.9056 9.80014 20.0072 10.0371 19.9056 10.3757C19.3307 11.663 18.6195 12.885 17.7841 14.0207C17.6148 14.2802 17.5471 14.4156 17.7841 14.7203C17.9421 14.9573 18.495 15.4199 18.8674 15.86C19.4091 16.4003 19.8589 17.0255 20.199 17.7108C20.3344 18.1509 20.1087 18.3765 19.6573 18.3765V18.3765Z" fill="black"/>
</svg>
