<svg width="29" height="29" viewBox="0 0 29 29" fill="none" xmlns="http://www.w3.org/2000/svg">
<circle cx="14.6992" cy="14.75" r="14" fill="#48C95F"/>
<path d="M20.248 9.19404C18.8651 7.81592 17.0212 7.05029 15.0748 7.05029C11.0285 7.05029 7.75044 10.317 7.75044 14.3493C7.75044 15.6253 8.10897 16.9013 8.72361 17.9732L7.69922 21.7503L11.5919 20.7295C12.6675 21.2909 13.8456 21.5972 15.0748 21.5972C19.1212 21.5972 22.3992 18.3305 22.3992 14.2982C22.348 12.4097 21.6309 10.5722 20.248 9.19404ZM18.609 16.9524C18.4553 17.3607 17.7382 17.769 17.3797 17.8201C17.0724 17.8711 16.6626 17.8711 16.2529 17.769C15.9968 17.667 15.6382 17.5649 15.2285 17.3607C13.3846 16.5951 12.2065 14.7576 12.1041 14.6045C12.0017 14.5024 11.3358 13.6347 11.3358 12.7159C11.3358 11.7972 11.7968 11.3888 11.9504 11.1847C12.1041 10.9805 12.309 10.9805 12.4626 10.9805C12.5651 10.9805 12.7187 10.9805 12.8212 10.9805C12.9236 10.9805 13.0773 10.9295 13.2309 11.2868C13.3846 11.644 13.7431 12.5628 13.7943 12.6138C13.8456 12.7159 13.8456 12.818 13.7943 12.9201C13.7431 13.0222 13.6919 13.1243 13.5895 13.2263C13.487 13.3284 13.3846 13.4815 13.3334 13.5326C13.2309 13.6347 13.1285 13.7368 13.2309 13.8899C13.3334 14.094 13.6919 14.6555 14.2553 15.1659C14.9724 15.7784 15.5358 15.9826 15.7407 16.0847C15.9456 16.1868 16.048 16.1357 16.1504 16.0336C16.2529 15.9315 16.6114 15.5232 16.7139 15.319C16.8163 15.1149 16.9699 15.1659 17.1236 15.217C17.2773 15.268 18.1992 15.7274 18.3529 15.8295C18.5578 15.9315 18.6602 15.9826 18.7114 16.0336C18.7626 16.1868 18.7626 16.544 18.609 16.9524Z" fill="white"/>
</svg>
